<?xml version="1.0" encoding="UTF-8" standalone="no"?>
<!DOCTYPE svg PUBLIC "-//W3C//DTD SVG 1.1//EN" "http://www.w3.org/Graphics/SVG/1.1/DTD/svg11.dtd">
<svg   viewBox="600 250 700 720" version="1.1" xmlns="http://www.w3.org/2000/svg" xmlns:xlink="http://www.w3.org/1999/xlink" xml:space="preserve" xmlns:serif="http://www.serif.com/" style="fill-rule:evenodd;clip-rule:evenodd;stroke-linejoin:round;stroke-miterlimit:2;">
    <g id="Logo">
        <path d="M769,422L703,425L923.766,849L1144,428L1078,425L1068.44,406.065L1175,415L923.766,898L672,412L777,406L769,422Z" style="fill:#F0F4F8;"/>
        <path d="M850.394,670L998,670L923.766,813L850.394,670" style="fill:#F0F4F8;"/>
        <g transform="matrix(0.980769,0,0,0.980769,17.499,9.42308)">
            <path d="M923.766,334C1009.86,334 1079.77,403.901 1079.77,490C1079.77,576.099 1009.86,646 923.766,646C837.667,646 767.766,576.099 767.766,490C767.766,403.901 837.667,334 923.766,334ZM923.766,358.521C996.331,358.521 1055.24,417.435 1055.24,490C1055.24,562.565 996.331,621.479 923.766,621.479C851.201,621.479 792.287,562.565 792.287,490C792.287,417.435 851.201,358.521 923.766,358.521Z" style="fill:#F0F4F8;"/>
        </g>
        <g transform="matrix(1,0,0,1,-0.265699,0)">
            <circle cx="923.766" cy="490" r="24" style="fill:#F0F4F8;"/>
        </g>
        <g>
            <g transform="matrix(1,0,0,1.05747,0.5,-28.954)">
                <path d="M927,384.364L927,466.636C927,467.941 925.88,469 924.5,469L919.5,469C918.12,469 917,467.941 917,466.636L917,384.364C917,383.059 918.12,382 919.5,382L924.5,382C925.88,382 927,383.059 927,384.364Z" style="fill:#F0F4F8;"/>
            </g>
            <g transform="matrix(1,0,0,1.15385,-1,-62.4615)">
                <path d="M940,373.5C940,377.087 936.639,380 932.5,380L914.5,380C910.361,380 907,377.087 907,373.5C907,369.913 910.361,367 914.5,367L932.5,367C936.639,367 940,369.913 940,373.5Z" style="fill:#F0F4F8;"/>
            </g>
        </g>
        <g transform="matrix(0.918548,0.39531,-0.39531,0.918548,269.798,-324.952)">
            <g transform="matrix(1,0,0,1.05747,0.5,-28.954)">
                <path d="M927,384.364L927,466.636C927,467.941 925.88,469 924.5,469L919.5,469C918.12,469 917,467.941 917,466.636L917,384.364C917,383.059 918.12,382 919.5,382L924.5,382C925.88,382 927,383.059 927,384.364Z" style="fill:#F0F4F8;"/>
            </g>
            <g transform="matrix(1,0,0,1.15385,-1,-62.4615)">
                <path d="M940,373.5C940,377.087 936.639,380 932.5,380L914.5,380C910.361,380 907,377.087 907,373.5C907,369.913 910.361,367 914.5,367L932.5,367C936.639,367 940,369.913 940,373.5Z" style="fill:#F0F4F8;"/>
            </g>
        </g>
        <g transform="matrix(0.719281,0.694719,-0.694719,0.719281,601.577,-501.661)">
            <g transform="matrix(1,0,0,1.05747,0.5,-28.954)">
                <path d="M927,384.364L927,466.636C927,467.941 925.88,469 924.5,469L919.5,469C918.12,469 917,467.941 917,466.636L917,384.364C917,383.059 918.12,382 919.5,382L924.5,382C925.88,382 927,383.059 927,384.364Z" style="fill:#F0F4F8;"/>
            </g>
            <g transform="matrix(1,0,0,1.15385,-1,-62.4615)">
                <path d="M940,373.5C940,377.087 936.639,380 932.5,380L914.5,380C910.361,380 907,377.087 907,373.5C907,369.913 910.361,367 914.5,367L932.5,367C936.639,367 940,369.913 940,373.5Z" style="fill:#F0F4F8;"/>
            </g>
        </g>
        <g transform="matrix(0.372517,0.928025,-0.928025,0.372517,1034.06,-549.325)">
            <g transform="matrix(1,0,0,1.05747,0.5,-28.954)">
                <path d="M927,384.364L927,466.636C927,467.941 925.88,469 924.5,469L919.5,469C918.12,469 917,467.941 917,466.636L917,384.364C917,383.059 918.12,382 919.5,382L924.5,382C925.88,382 927,383.059 927,384.364Z" style="fill:#F0F4F8;"/>
            </g>
            <g transform="matrix(1,0,0,1.15385,-1,-62.4615)">
                <path d="M940,373.5C940,377.087 936.639,380 932.5,380L914.5,380C910.361,380 907,377.087 907,373.5C907,369.913 910.361,367 914.5,367L932.5,367C936.639,367 940,369.913 940,373.5Z" style="fill:#F0F4F8;"/>
            </g>
        </g>
        <g transform="matrix(-0.0393178,0.999227,-0.999227,-0.0393178,1448.24,-416.066)">
            <g transform="matrix(1,0,0,1.05747,0.5,-28.954)">
                <path d="M927,384.364L927,466.636C927,467.941 925.88,469 924.5,469L919.5,469C918.12,469 917,467.941 917,466.636L917,384.364C917,383.059 918.12,382 919.5,382L924.5,382C925.88,382 927,383.059 927,384.364Z" style="fill:#F0F4F8;"/>
            </g>
            <g transform="matrix(1,0,0,1.15385,-1,-62.4615)">
                <path d="M940,373.5C940,377.087 936.639,380 932.5,380L914.5,380C910.361,380 907,377.087 907,373.5C907,369.913 910.361,367 914.5,367L932.5,367C936.639,367 940,369.913 940,373.5Z" style="fill:#F0F4F8;"/>
            </g>
        </g>
        <g transform="matrix(-0.444285,0.895886,-0.895886,-0.444285,1773.79,-123.159)">
            <g transform="matrix(1,0,0,1.05747,0.5,-28.954)">
                <path d="M927,384.364L927,466.636C927,467.941 925.88,469 924.5,469L919.5,469C918.12,469 917,467.941 917,466.636L917,384.364C917,383.059 918.12,382 919.5,382L924.5,382C925.88,382 927,383.059 927,384.364Z" style="fill:#F0F4F8;"/>
            </g>
            <g transform="matrix(1,0,0,1.15385,-1,-62.4615)">
                <path d="M940,373.5C940,377.087 936.639,380 932.5,380L914.5,380C910.361,380 907,377.087 907,373.5C907,369.913 910.361,367 914.5,367L932.5,367C936.639,367 940,369.913 940,373.5Z" style="fill:#F0F4F8;"/>
            </g>
        </g>
        <g transform="matrix(-0.701106,0.713057,-0.713057,-0.701106,1920.99,174.341)">
            <g transform="matrix(1,0,0,1.05747,0.5,-28.954)">
                <path d="M927,384.364L927,466.636C927,467.941 925.88,469 924.5,469L919.5,469C918.12,469 917,467.941 917,466.636L917,384.364C917,383.059 918.12,382 919.5,382L924.5,382C925.88,382 927,383.059 927,384.364Z" style="fill:#F0F4F8;"/>
            </g>
            <g transform="matrix(1,0,0,1.15385,-1,-62.4615)">
                <path d="M940,373.5C940,377.087 936.639,380 932.5,380L914.5,380C910.361,380 907,377.087 907,373.5C907,369.913 910.361,367 914.5,367L932.5,367C936.639,367 940,369.913 940,373.5Z" style="fill:#F0F4F8;"/>
            </g>
        </g>
        <g transform="matrix(-0.940447,0.339941,-0.339941,-0.940447,1960.66,635.81)">
            <g transform="matrix(1,0,0,1.05747,0.5,-28.954)">
                <path d="M927,384.364L927,466.636C927,467.941 925.88,469 924.5,469L919.5,469C918.12,469 917,467.941 917,466.636L917,384.364C917,383.059 918.12,382 919.5,382L924.5,382C925.88,382 927,383.059 927,384.364Z" style="fill:#F0F4F8;"/>
            </g>
            <g transform="matrix(1,0,0,1.15385,-1,-62.4615)">
                <path d="M940,373.5C940,377.087 936.639,380 932.5,380L914.5,380C910.361,380 907,377.087 907,373.5C907,369.913 910.361,367 914.5,367L932.5,367C936.639,367 940,369.913 940,373.5Z" style="fill:#F0F4F8;"/>
            </g>
        </g>
        <g transform="matrix(-0.999029,-0.0440646,0.0440646,-0.999029,1824.92,1020.85)">
            <g transform="matrix(1,0,0,1.05747,0.5,-28.954)">
                <path d="M927,384.364L927,466.636C927,467.941 925.88,469 924.5,469L919.5,469C918.12,469 917,467.941 917,466.636L917,384.364C917,383.059 918.12,382 919.5,382L924.5,382C925.88,382 927,383.059 927,384.364Z" style="fill:#F0F4F8;"/>
            </g>
            <g transform="matrix(1,0,0,1.15385,-1,-62.4615)">
                <path d="M940,373.5C940,377.087 936.639,380 932.5,380L914.5,380C910.361,380 907,377.087 907,373.5C907,369.913 910.361,367 914.5,367L932.5,367C936.639,367 940,369.913 940,373.5Z" style="fill:#F0F4F8;"/>
            </g>
        </g>
        <g transform="matrix(-0.901621,-0.432528,0.432528,-0.901621,1545.32,1331.52)">
            <g transform="matrix(1,0,0,1.05747,0.5,-28.954)">
                <path d="M927,384.364L927,466.636C927,467.941 925.88,469 924.5,469L919.5,469C918.12,469 917,467.941 917,466.636L917,384.364C917,383.059 918.12,382 919.5,382L924.5,382C925.88,382 927,383.059 927,384.364Z" style="fill:#F0F4F8;"/>
            </g>
            <g transform="matrix(1,0,0,1.15385,-1,-62.4615)">
                <path d="M940,373.5C940,377.087 936.639,380 932.5,380L914.5,380C910.361,380 907,377.087 907,373.5C907,369.913 910.361,367 914.5,367L932.5,367C936.639,367 940,369.913 940,373.5Z" style="fill:#F0F4F8;"/>
            </g>
        </g>
        <g transform="matrix(-0.662029,-0.749478,0.749478,-0.662029,1167.74,1507.25)">
            <g transform="matrix(1,0,0,1.05747,0.5,-28.954)">
                <path d="M927,384.364L927,466.636C927,467.941 925.88,469 924.5,469L919.5,469C918.12,469 917,467.941 917,466.636L917,384.364C917,383.059 918.12,382 919.5,382L924.5,382C925.88,382 927,383.059 927,384.364Z" style="fill:#F0F4F8;"/>
            </g>
            <g transform="matrix(1,0,0,1.15385,-1,-62.4615)">
                <path d="M940,373.5C940,377.087 936.639,380 932.5,380L914.5,380C910.361,380 907,377.087 907,373.5C907,369.913 910.361,367 914.5,367L932.5,367C936.639,367 940,369.913 940,373.5Z" style="fill:#F0F4F8;"/>
            </g>
        </g>
        <g transform="matrix(-0.379048,-0.925377,0.925377,-0.379048,818.676,1528.38)">
            <g transform="matrix(1,0,0,1.05747,0.5,-28.954)">
                <path d="M927,384.364L927,466.636C927,467.941 925.88,469 924.5,469L919.5,469C918.12,469 917,467.941 917,466.636L917,384.364C917,383.059 918.12,382 919.5,382L924.5,382C925.88,382 927,383.059 927,384.364Z" style="fill:#F0F4F8;"/>
            </g>
            <g transform="matrix(1,0,0,1.15385,-1,-62.4615)">
                <path d="M940,373.5C940,377.087 936.639,380 932.5,380L914.5,380C910.361,380 907,377.087 907,373.5C907,369.913 910.361,367 914.5,367L932.5,367C936.639,367 940,369.913 940,373.5Z" style="fill:#F0F4F8;"/>
            </g>
        </g>
        <g transform="matrix(-0.0314735,-0.999505,0.999505,-0.0314735,463.075,1425.08)">
            <g transform="matrix(1,0,0,1.05747,0.5,-28.954)">
                <path d="M927,384.364L927,466.636C927,467.941 925.88,469 924.5,469L919.5,469C918.12,469 917,467.941 917,466.636L917,384.364C917,383.059 918.12,382 919.5,382L924.5,382C925.88,382 927,383.059 927,384.364Z" style="fill:#F0F4F8;"/>
            </g>
            <g transform="matrix(1,0,0,1.15385,-1,-62.4615)">
                <path d="M940,373.5C940,377.087 936.639,380 932.5,380L914.5,380C910.361,380 907,377.087 907,373.5C907,369.913 910.361,367 914.5,367L932.5,367C936.639,367 940,369.913 940,373.5Z" style="fill:#F0F4F8;"/>
            </g>
        </g>
        <g transform="matrix(0.428118,-0.903723,0.903723,0.428118,85.0983,1114.88)">
            <g transform="matrix(1,0,0,1.05747,0.5,-28.954)">
                <path d="M927,384.364L927,466.636C927,467.941 925.88,469 924.5,469L919.5,469C918.12,469 917,467.941 917,466.636L917,384.364C917,383.059 918.12,382 919.5,382L924.5,382C925.88,382 927,383.059 927,384.364Z" style="fill:#F0F4F8;"/>
            </g>
            <g transform="matrix(1,0,0,1.15385,-1,-62.4615)">
                <path d="M940,373.5C940,377.087 936.639,380 932.5,380L914.5,380C910.361,380 907,377.087 907,373.5C907,369.913 910.361,367 914.5,367L932.5,367C936.639,367 940,369.913 940,373.5Z" style="fill:#F0F4F8;"/>
            </g>
        </g>
        <g transform="matrix(0.904771,-0.425897,0.425897,0.904771,-118.166,439.861)">
            <g transform="matrix(1,0,0,1.05747,0.5,-28.954)">
                <path d="M927,384.364L927,466.636C927,467.941 925.88,469 924.5,469L919.5,469C918.12,469 917,467.941 917,466.636L917,384.364C917,383.059 918.12,382 919.5,382L924.5,382C925.88,382 927,383.059 927,384.364Z" style="fill:#F0F4F8;"/>
            </g>
            <g transform="matrix(1,0,0,1.15385,-1,-62.4615)">
                <path d="M940,373.5C940,377.087 936.639,380 932.5,380L914.5,380C910.361,380 907,377.087 907,373.5C907,369.913 910.361,367 914.5,367L932.5,367C936.639,367 940,369.913 940,373.5Z" style="fill:#F0F4F8;"/>
            </g>
        </g>
        <g transform="matrix(0.678604,-0.734504,0.734504,0.678604,-62.2898,835.184)">
            <g transform="matrix(1,0,0,1.05747,0.5,-28.954)">
                <path d="M927,384.364L927,466.636C927,467.941 925.88,469 924.5,469L919.5,469C918.12,469 917,467.941 917,466.636L917,384.364C917,383.059 918.12,382 919.5,382L924.5,382C925.88,382 927,383.059 927,384.364Z" style="fill:#F0F4F8;"/>
            </g>
            <g transform="matrix(1,0,0,1.15385,-1,-62.4615)">
                <path d="M940,373.5C940,377.087 936.639,380 932.5,380L914.5,380C910.361,380 907,377.087 907,373.5C907,369.913 910.361,367 914.5,367L932.5,367C936.639,367 940,369.913 940,373.5Z" style="fill:#F0F4F8;"/>
            </g>
        </g>
    </g>
</svg>
