<?xml version="1.0" encoding="utf-8"?>
<svg xmlns="http://www.w3.org/2000/svg" viewBox="0 0 512 452"
     width="512" height="452">
  <!-- Akakpen Faction Logo — auto-traced from Akakpen Symbol.png -->
  <!-- 6 contours, scale 0.8626 -->
  <g>
    <path fill="#D9781E" d="M 212.0 107.6 L 74.9 344.0 L 139.5 342.3 L 164.6 299.1 L 159.4 289.6 L 210.3 203.4 L 253.4 275.0 L 307.8 275.8 Z"/>
    <path fill="#D9781E" d="M 118.8 419.9 L 392.3 421.6 L 360.4 365.5 L 306.9 365.5 L 308.6 374.2 L 202.5 374.2 L 243.1 300.0 L 217.2 253.4 Z"/>
    <path fill="#D9781E" d="M 299.1 106.8 L 268.1 162.8 L 294.0 207.7 L 304.3 207.7 L 353.5 295.7 L 270.7 296.5 L 243.1 344.0 L 436.3 344.0 Z"/>
    <path fill="#D9781E" d="M 254.3 30.0 L 224.9 80.9 L 224.1 86.9 L 253.4 137.8 L 256.9 138.7 L 284.5 91.2 L 287.1 82.6 L 256.9 30.0 Z"/>
    <path fill="#D9781E" d="M 386.3 365.5 L 417.3 421.6 L 481.1 421.6 L 449.2 365.5 Z"/>
    <path fill="#D9781E" d="M 124.9 365.5 L 61.9 365.5 L 30.0 421.6 L 93.0 421.6 Z"/>
  </g>
</svg>