<?xml version="1.0" encoding="utf-8" ?>
<svg baseProfile="full" height="335px" version="1.1" viewBox="234 108 267 335" width="267px" xmlns="http://www.w3.org/2000/svg" xmlns:ev="http://www.w3.org/2001/xml-events" xmlns:xlink="http://www.w3.org/1999/xlink"><defs><radialGradient cx="367.5" cy="275.5" gradientUnits="userSpaceOnUse" id="pinkFlare" r="167.5"><stop offset="0%" stop-color="#FF2D6C" stop-opacity="0.45" /><stop offset="60%" stop-color="#FF2D6C" stop-opacity="0.08" /><stop offset="100%" stop-color="#FF2D6C" stop-opacity="0.0" /></radialGradient></defs><rect fill="#0B0D10" height="335" width="267" x="234" y="108" /><rect fill="url(#pinkFlare)" height="335" width="267" x="234" y="108" /><g fill="#0B2D5A" stroke="none"><path d="M274,180L289,225L288,309L318,340L320,340L320,224L276,180Z" /><path d="M352,148L352,374L383,403L383,177Z" /><path d="M461,180L459,180L415,224L415,340L417,340L447,309L446,225Z" /></g><g fill="none" stroke="#FF2D6C" stroke-linejoin="round" stroke-width="2.5"><path d="M274,180L289,225L288,309L318,340L320,340L320,224L276,180Z" /><path d="M352,148L352,374L383,403L383,177Z" /><path d="M461,180L459,180L415,224L415,340L417,340L447,309L446,225Z" /></g></svg>