<?xml version="1.0" encoding="utf-8"?>
<svg xmlns="http://www.w3.org/2000/svg" viewBox="0 0 512 1024"
     width="512" height="1024">
  <!-- Bharatvarsh Master Logo — Mustard Gold (primary) -->
  <!-- Source: content-pipelines/bharatvarsh/assets/references/TridentSVG.svg -->
  <g transform="translate(-436.20, 32.01) scale(0.835490)">
    <path fill="#F1C232" d="M558,591C567.667,574.667 577.333,558.333 587,542C589.499,494.56 600.592,451.027 615,409C637.047,350.036 641.745,284.949 627,213C677.566,259.478 700.965,313.537 705,373C693.529,354.393 679.8,340.868 664,332C664.192,370.425 661.218,413.918 656,461C636.52,591.594 774.84,598.551 797,530L763,490C806.834,414.998 807.435,387.59 768,344L826.76,65L890,347C837.523,390.642 863.502,436.789 892,488C864.051,528.11 840.438,544.495 894,566.929C955.771,583.564 1004.9,555.458 1004,482C996.67,428.337 991.668,377.001 993,332C976.487,339.467 963.182,355.272 951,374C955.808,315.178 975.819,259.83 1030,214C1014.51,291.085 1021,353.155 1041,406C1055.25,447.06 1065.41,489.343 1071,533C1080.33,565.087 1089.67,578.359 1099,592C1056.59,588.704 1020.61,606.137 986,628C967.126,641.543 942.532,651.652 915,660C906.622,649 896.307,638 881,627L865.614,658.885C860.82,664.59 861.272,670.295 866,676L888,691C888,691 909.333,705.5 904,712C898.667,718.5 876.177,731.304 856,730L888,759L872,789C865.282,889.501 849.597,987.557 828,1084C804.954,985.667 790.109,887.333 786,789L770,762L797,731C775.633,726.88 751.037,720.267 752,711C752.806,703.246 790.595,678.054 787,676C791.449,671.193 793.611,665.405 792,658L775,627C763.431,633.84 752.838,644.1 743,657C716.667,650.951 690.333,638.572 664,623C626.628,600.101 591.044,587.928 558,591Z"/>
  </g>
</svg>